Coordinates
version=1
nRows=12
nColumns=24
inDegrees=yes

Units are S.I. units (second, meters, Newtons, ...)
Angles are in degrees.

endheader
time	pelvis_tilt	pelvis_list	pelvis_rotation	pelvis_tx	pelvis_ty	pelvis_tz	hip_flexion_r	hip_adduction_r	hip_rotation_r	knee_angle_r	ankle_angle_r	subtalar_angle_r	mtp_angle_r	hip_flexion_l	hip_adduction_l	hip_rotation_l	knee_angle_l	ankle_angle_l	subtalar_angle_l	mtp_angle_l	lumbar_extension	lumbar_bending	lumbar_rotation
      1.40416667	     -3.25316607	      1.50382468	    -13.15104311	      0.99429477	      0.98319620	      0.27143799	    -15.54408874	     -1.76344278	      7.23753652	     -8.73943666	     11.44665439	     -1.92427768	     15.98886193	     26.11727818	     -3.17085042	    -12.67588544	      5.81913379	      4.62357648	    -11.08954998	      8.84189583	      0.18415533	     -0.96838248	     12.57580415
      1.40833333	     -3.23645299	      1.58118212	    -13.23688193	      1.00040263	      0.98267359	      0.27115167	    -15.70958836	     -1.95576600	      7.23926972	     -9.08789141	     11.25009222	     -1.92440346	     16.00982058	     26.12048592	     -3.10085806	    -12.70966616	      5.48250609	      4.77411426	    -11.26755217	      8.84316764	      0.21438826	     -1.09549822	     12.60194188
      1.41250000	     -3.18354843	      1.67755852	    -13.30845765	      1.00658221	      0.98220887	      0.27085236	    -15.90674673	     -2.17556159	      7.17472397	     -9.44523528	     11.06230251	     -1.82609319	     16.10940938	     26.08523074	     -2.99649409	    -12.67337859	      5.09734689	      4.91772931	    -11.47804212	      8.84847709	      0.22664181	     -1.27839473	     12.75404204
      1.41666667	     -3.14440446	      1.78242177	    -13.39454941	      1.01279530	      0.98176448	      0.27054718	    -16.06481663	     -2.40277463	      7.13305443	     -9.84476050	     10.84125836	     -1.81769941	     16.17147211	     26.06421008	     -2.88938514	    -12.68303912	      4.66800059	      5.01003649	    -11.66772321	      8.85418660	      0.26621669	     -1.43539695	     12.82257730
      1.42083333	     -3.07381039	      1.90646613	    -13.47295307	      1.01903533	      0.98136837	      0.27021025	    -16.23220236	     -2.65921694	      7.02339768	    -10.28345743	     10.64990510	     -1.65865067	     16.45605171	     26.00200341	     -2.74547432	    -12.60747317	      4.22949159	      4.98891084	    -11.97179425	      8.88478693	      0.24954135	     -1.62860809	     13.06273329
      1.42500000	     -3.03231283	      2.04118099	    -13.54583635	      1.02535229	      0.98096211	      0.26989012	    -16.37263997	     -2.91005346	      6.98591260	    -10.71655015	     10.37475486	     -1.70412948	     16.51732696	     25.98349060	     -2.59880525	    -12.58186456	      3.72662468	      5.02444290	    -12.13857130	      8.89339562	      0.30050589	     -1.83321214	     13.08289110
      1.42916667	     -2.94435481	      2.19630225	    -13.60476318	      1.03175798	      0.98063670	      0.26952983	    -16.55950948	     -3.19577013	      6.88124050	    -11.13884612	     10.02671064	     -1.74805841	     21.24296077	     25.88983943	     -2.40229004	    -12.42118524	      3.26083865	      4.90697814	    -12.50927518	      9.59628639	      0.28835957	     -2.07507009	     13.19341812
      1.43333333	     -2.90974439	      2.37158203	    -13.68084977	      1.03816056	      0.98026331	      0.26917610	    -16.63985204	     -3.49111385	      6.77635762	    -11.65596042	      9.75034608	     -1.65856452	     21.28866292	     25.87742946	     -2.20911130	    -12.38395425	      2.72443834	      4.78719843	    -12.70218618	      9.61282414	      0.36222647	     -2.31905764	     13.33915015
      1.43750000	     -2.85461888	      2.55134156	    -13.74277084	      1.04463639	      0.97994411	      0.26880857	    -16.74740162	     -3.78798099	      6.68903692	    -12.16404984	      9.40788793	     -1.70255945	     21.31201720	     25.84897518	     -1.99971374	    -12.32412466	      2.15605975	      4.69106967	    -12.86322405	      9.62155631	      0.42372596	     -2.57282331	     13.39237387
      1.44166667	     -2.80076228	      2.77300697	    -13.80606729	      1.05116779	      0.97964354	      0.26843239	    -16.82798263	     -4.13126712	      6.56967746	    -12.70138505	      9.05283888	     -1.63684456	     21.39499548	     25.79548381	     -1.73784072	    -12.20419915	      1.65117071	      4.43491506	    -13.13037700	      9.64617882	      0.49234310	     -2.89609176	     13.53164791
      1.44583333	     -2.72805659	      2.97427093	    -13.86576439	      1.05765569	      0.97938480	      0.26798820	    -16.88172436	     -4.45974074	      6.39570103	    -13.33587506	      8.74631010	     -1.51052912	     21.66209190	     25.72105876	     -1.47958751	    -11.99950191	      1.14908981	      4.06384042	    -13.61069169	      9.72807965	      0.52259446	     -3.15599957	     13.70742546
      1.45000000	     -2.68185845	      3.20730376	    -13.90808216	      1.06424456	      0.97913548	      0.26757142	    -16.92700616	     -4.80061635	      6.28364863	    -13.91889399	      8.29812079	     -1.56375185	     21.76542674	     25.70211581	     -1.20080448	    -11.92011982	      0.57985456	      3.76686747	    -13.75998881	      9.75899144	      0.61711227	     -3.48212097	     13.75321478
